<svg xmlns="http://www.w3.org/2000/svg" xmlns:xlink="http://www.w3.org/1999/xlink" viewBox="0,0,256,256" width="100px" height="100px"><g fill="none" fill-rule="nonzero" stroke="none" stroke-width="1" stroke-linecap="butt" stroke-linejoin="miter" stroke-miterlimit="10" stroke-dasharray="" stroke-dashoffset="0" font-family="none" font-weight="none" font-size="none" text-anchor="none" style="mix-blend-mode: normal"><g transform="scale(2.56,2.56)"><circle cx="13" cy="29" r="2" fill-opacity="0" fill="#78a0cf"></circle><circle cx="77" cy="13" r="1" fill-opacity="0" fill="#f1bc19"></circle><circle cx="50" cy="50" r="37" fill-opacity="0" fill="#cee1f4"></circle><circle cx="83" cy="15" r="4" fill-opacity="0" fill="#f1bc19"></circle><circle cx="87" cy="24" r="2" fill-opacity="0" fill="#78a0cf"></circle><circle cx="81" cy="76" r="2" fill-opacity="0" fill="#fbcd59"></circle><circle cx="15" cy="63" r="4" fill-opacity="0" fill="#fbcd59"></circle><circle cx="25" cy="87" r="2" fill-opacity="0" fill="#78a0cf"></circle><circle cx="18.5" cy="53.5" r="2.5" fill="#ffffff"></circle><circle cx="16" cy="47" r="1" fill-opacity="0" fill="#f1bc19"></circle><circle cx="80" cy="34" r="1" fill="#ffffff"></circle><g fill="#ef9922"><path d="M66.719,73h-31.438c-4.021,0 -7.281,-3.26 -7.281,-7.281v-31.438c0,-4.021 3.26,-7.281 7.281,-7.281h31.438c4.021,0 7.281,3.26 7.281,7.281v31.438c0,4.021 -3.26,7.281 -7.281,7.281z"></path></g><g fill="#472b29"><path d="M66.719,73.7h-31.438c-4.401,0 -7.981,-3.58 -7.981,-7.981v-31.438c0,-4.401 3.581,-7.981 7.981,-7.981h31.438c4.401,0 7.981,3.58 7.981,7.981v31.438c0,4.401 -3.58,7.981 -7.981,7.981zM35.281,27.7c-3.629,0 -6.581,2.952 -6.581,6.581v31.438c0,3.629 2.952,6.581 6.581,6.581h31.438c3.629,0 6.581,-2.952 6.581,-6.581v-31.438c0,-3.629 -2.952,-6.581 -6.581,-6.581z"></path></g><g fill="#472b29"><path d="M31.5,40.167c-0.276,0 -0.5,-0.224 -0.5,-0.5v-4.333c0,-2.941 2.393,-5.334 5.333,-5.334h14c0.276,0 0.5,0.224 0.5,0.5c0,0.276 -0.224,0.5 -0.5,0.5h-14c-2.389,0 -4.333,1.944 -4.333,4.333v4.333c0,0.277 -0.224,0.501 -0.5,0.501z"></path></g><g fill="#472b29"><path d="M42.583,70h-6.25c-2.94,0 -5.333,-2.393 -5.333,-5.333v-20.334c0,-0.276 0.224,-0.5 0.5,-0.5c0.276,0 0.5,0.224 0.5,0.5v20.333c0,2.39 1.944,4.334 4.333,4.334h6.25c0.276,0 0.5,0.224 0.5,0.5c0,0.276 -0.223,0.5 -0.5,0.5z"></path></g><g fill="#472b29"><path d="M65.667,70h-19.75c-0.276,0 -0.5,-0.224 -0.5,-0.5c0,-0.276 0.224,-0.5 0.5,-0.5h19.75c2.389,0 4.333,-1.944 4.333,-4.333v-5.083c0,-0.276 0.224,-0.5 0.5,-0.5c0.276,0 0.5,0.224 0.5,0.5v5.083c0,2.94 -2.393,5.333 -5.333,5.333z"></path></g><g fill="#472b29"><path d="M70.5,56.167c-0.276,0 -0.5,-0.224 -0.5,-0.5v-20.334c0,-2.389 -1.944,-4.333 -4.333,-4.333h-2.75c-0.276,0 -0.5,-0.224 -0.5,-0.5c0,-0.276 0.224,-0.5 0.5,-0.5h2.75c2.94,0 5.333,2.393 5.333,5.333v20.333c0,0.277 -0.224,0.501 -0.5,0.501z"></path></g><g fill="#472b29"><path d="M59.5,31h-6.25c-0.276,0 -0.5,-0.224 -0.5,-0.5c0,-0.276 0.224,-0.5 0.5,-0.5h6.25c0.276,0 0.5,0.224 0.5,0.5c0,0.276 -0.224,0.5 -0.5,0.5z"></path></g><g><path d="M50.5,64.483c2.895,-6.972 9.514,-7.217 15.365,-2.588c0.257,0.204 0.635,0.031 0.635,-0.297v-21.734c0,-0.099 -0.035,-0.197 -0.098,-0.272c-5.044,-6.036 -15.902,-2.939 -15.902,3.214z" fill="#ffffff"></path><path d="M50.5,64.732c-0.016,0 -0.033,-0.001 -0.049,-0.005c-0.117,-0.023 -0.201,-0.126 -0.201,-0.245v-21.676c0,-2.61 1.931,-4.932 5.039,-6.06c3.458,-1.255 8.297,-0.913 11.305,2.684c0.101,0.12 0.156,0.274 0.156,0.433v21.734c0,0.246 -0.137,0.464 -0.356,0.571c-0.225,0.108 -0.485,0.079 -0.684,-0.077c-3.205,-2.535 -6.668,-3.567 -9.503,-2.831c-2.396,0.622 -4.29,2.461 -5.476,5.319c-0.04,0.094 -0.131,0.153 -0.231,0.153zM59.108,36.583c-1.287,0 -2.541,0.231 -3.648,0.633c-2.905,1.054 -4.709,3.196 -4.709,5.59v20.546c1.257,-2.42 3.083,-3.993 5.331,-4.577c3.032,-0.789 6.561,0.251 9.939,2.922c0.068,0.055 0.136,0.028 0.155,0.019c0.028,-0.013 0.074,-0.047 0.074,-0.121v-21.732c0,-0.041 -0.015,-0.082 -0.04,-0.112c-1.894,-2.266 -4.56,-3.168 -7.102,-3.168z" fill="#472b29"></path></g><g><path d="M50.5,64.483c-2.895,-6.972 -9.514,-7.217 -15.365,-2.588c-0.257,0.204 -0.635,0.031 -0.635,-0.297v-21.734c0,-0.099 0.035,-0.197 0.098,-0.272c5.044,-6.034 15.902,-2.937 15.902,3.216z" fill="#ffffff"></path><path d="M50.5,64.732c-0.1,0 -0.191,-0.06 -0.231,-0.154c-1.186,-2.857 -3.08,-4.697 -5.476,-5.319c-2.833,-0.736 -6.299,0.296 -9.503,2.831c-0.197,0.156 -0.458,0.186 -0.684,0.077c-0.22,-0.106 -0.356,-0.325 -0.356,-0.571v-21.733c0,-0.159 0.056,-0.313 0.157,-0.433c3.006,-3.597 7.844,-3.94 11.304,-2.684c3.108,1.128 5.039,3.45 5.039,6.06v21.676c0,0.119 -0.084,0.222 -0.201,0.245c-0.016,0.004 -0.033,0.005 -0.049,0.005zM42.871,58.519c0.702,0 1.387,0.085 2.048,0.257c2.248,0.583 4.074,2.157 5.331,4.577v-20.547c0,-2.394 -1.805,-4.536 -4.709,-5.59c-3.296,-1.197 -7.899,-0.877 -10.75,2.534c-0.025,0.03 -0.04,0.071 -0.04,0.112v21.734c0,0.074 0.046,0.107 0.074,0.121c0.018,0.009 0.085,0.035 0.155,-0.019c2.641,-2.089 5.375,-3.179 7.891,-3.179z" fill="#472b29"></path></g></g></g></svg>