<svg xmlns="http://www.w3.org/2000/svg" xmlns:xlink="http://www.w3.org/1999/xlink" viewBox="0,0,256,256" width="96px" height="96px"><g fill="none" fill-rule="nonzero" stroke="none" stroke-width="1" stroke-linecap="butt" stroke-linejoin="miter" stroke-miterlimit="10" stroke-dasharray="" stroke-dashoffset="0" font-family="none" font-weight="none" font-size="none" text-anchor="none" style="mix-blend-mode: normal"><g transform="scale(5.33333,5.33333)"><path d="M35,6h-22c-3.866,0 -7,3.134 -7,7v22c0,3.866 3.134,7 7,7h22c3.866,0 7,-3.134 7,-7v-22c0,-3.866 -3.134,-7 -7,-7z" fill="#00d900"></path><path d="M24,12c-7.18,0 -13,4.925 -13,11c0,4.074 2.624,7.622 6.513,9.523c-0.582,1.25 -1.426,2.426 -2.513,3.477c2.162,-0.38 4.191,-1.175 5.937,-2.32c0.984,0.202 2.006,0.32 3.063,0.32c7.18,0 13,-4.925 13,-11c0,-6.075 -5.82,-11 -13,-11z" fill="#ffffff"></path></g></g></svg>