<svg xmlns="http://www.w3.org/2000/svg"  viewBox="0 0 100 100" width="100px" height="100px"><path fill="#fff" d="M70,18.988H31c-6.6,0-12,5.4-12,12v39c0,6.6,5.4,12,12,12h39c6.6,0,12-5.4,12-12v-39 C82,24.388,76.6,18.988,70,18.988z"/><path fill="#1f212b" d="M70,82.988H31c-7.18,0-13-5.82-13-13v-39c0-7.18,5.82-13,13-13h39c7.18,0,13,5.82,13,13v39 C83,77.168,77.179,82.988,70,82.988z M20,30.988v39c0,6.075,4.925,11,11,11h39c6.075,0,11-4.925,11-11v-39c0-6.075-4.925-11-11-11 H31C24.924,19.988,20,24.913,20,30.988z"/><path fill="#1f212b" d="M67.162,77.988H33.837C27.852,77.988,23,73.136,23,67.151V33.825 c0-5.985,4.852-10.837,10.837-10.837H67.5c0.276,0,0.5,0.224,0.5,0.5s-0.224,0.5-0.5,0.5H33.837c-5.433,0-9.837,4.404-9.837,9.837 V67.15c0,5.433,4.405,9.838,9.838,9.838h33.325c5.433,0,9.837-4.404,9.837-9.837V48.488c0-0.276,0.224-0.5,0.5-0.5 s0.5,0.224,0.5,0.5V67.15C78,73.136,73.147,77.988,67.162,77.988z M77.5,45.567c-0.276,0-0.5-0.224-0.5-0.5v-4 c0-0.276,0.224-0.5,0.5-0.5s0.5,0.224,0.5,0.5v4C78,45.344,77.776,45.567,77.5,45.567z M77.5,39.567c-0.276,0-0.5-0.224-0.5-0.5v-2 c0-0.276,0.224-0.5,0.5-0.5s0.5,0.224,0.5,0.5v2C78,39.344,77.776,39.567,77.5,39.567z"/><circle cx="50.5" cy="50.5" r="22" fill="#3070b7"/><path fill="#3a83c1" d="M28.505,50.291c5.751,4.782,13.481,7.716,21.988,7.716c8.514,0,16.249-2.938,22.001-7.726 C72.376,38.232,62.577,28.5,50.5,28.5C38.42,28.5,28.618,38.237,28.505,50.291z"/><path fill="#40a6dd" d="M50.5,50c8.133,0,15.499-3.403,20.062-8.526C67.116,33.827,59.432,28.5,50.5,28.5 s-16.616,5.327-20.062,12.974C35.001,46.597,42.367,50,50.5,50z"/><path fill="#31c4f3" d="M50.5,28.5c-6.104,0-11.626,2.487-15.612,6.502c2.847,3.857,8.606,7.001,15.612,7.001 s12.765-3.143,15.612-7.001C62.126,30.987,56.604,28.5,50.5,28.5z"/><circle cx="50.5" cy="50.5" r="22" fill="none" stroke="#1f212b" stroke-linecap="round" stroke-linejoin="round" stroke-miterlimit="10"/><line x1="50.5" x2="50.5" y1="67.5" y2="70.5" fill="none" stroke="#1f212b" stroke-linecap="round" stroke-linejoin="round" stroke-miterlimit="10"/><line x1="50.5" x2="50.5" y1="30.5" y2="33.5" fill="none" stroke="#1f212b" stroke-linecap="round" stroke-linejoin="round" stroke-miterlimit="10"/><line x1="33.5" x2="30.5" y1="50.5" y2="50.5" fill="none" stroke="#1f212b" stroke-linecap="round" stroke-linejoin="round" stroke-miterlimit="10"/><line x1="70.5" x2="67.5" y1="50.5" y2="50.5" fill="none" stroke="#1f212b" stroke-linecap="round" stroke-linejoin="round" stroke-miterlimit="10"/><line x1="43.68" x2="42.922" y1="67.158" y2="69.009" fill="none" stroke="#1f212b" stroke-linecap="round" stroke-linejoin="round" stroke-miterlimit="10"/><line x1="58.078" x2="57.32" y1="31.991" y2="33.842" fill="none" stroke="#1f212b" stroke-linecap="round" stroke-linejoin="round" stroke-miterlimit="10"/><line x1="33.842" x2="31.991" y1="43.68" y2="42.922" fill="none" stroke="#1f212b" stroke-linecap="round" stroke-linejoin="round" stroke-miterlimit="10"/><line x1="69.009" x2="67.158" y1="58.078" y2="57.32" fill="none" stroke="#1f212b" stroke-linecap="round" stroke-linejoin="round" stroke-miterlimit="10"/><line x1="57.32" x2="58.078" y1="67.158" y2="69.009" fill="none" stroke="#1f212b" stroke-linecap="round" stroke-linejoin="round" stroke-miterlimit="10"/><line x1="42.922" x2="43.68" y1="31.991" y2="33.842" fill="none" stroke="#1f212b" stroke-linecap="round" stroke-linejoin="round" stroke-miterlimit="10"/><line x1="67.158" x2="69.009" y1="43.68" y2="42.922" fill="none" stroke="#1f212b" stroke-linecap="round" stroke-linejoin="round" stroke-miterlimit="10"/><line x1="31.991" x2="33.842" y1="58.078" y2="57.32" fill="none" stroke="#1f212b" stroke-linecap="round" stroke-linejoin="round" stroke-miterlimit="10"/><polygon fill="#f15b6c" points="64.642,36.358 48,47 54,53"/><polygon fill="#fff" points="37.358,63.642 54,53 48,47"/><polygon fill="none" stroke="#1f212b" stroke-linecap="round" stroke-linejoin="round" stroke-miterlimit="10" points="64.5,36.5 48,47 36.5,64.5 54,53"/><line x1="38.479" x2="36.358" y1="38.479" y2="36.358" fill="none" stroke="#1f212b" stroke-linecap="round" stroke-linejoin="round" stroke-miterlimit="10"/><line x1="64.642" x2="62.521" y1="64.642" y2="62.521" fill="none" stroke="#1f212b" stroke-linecap="round" stroke-linejoin="round" stroke-miterlimit="10"/><line x1="48" x2="54" y1="47" y2="53" fill="none" stroke="#1f212b" stroke-linecap="round" stroke-linejoin="round" stroke-miterlimit="10"/></svg>