<svg xmlns="http://www.w3.org/2000/svg" xmlns:xlink="http://www.w3.org/1999/xlink" viewBox="0,0,256,256" width="96px" height="96px"><g transform="translate(21.76,21.76) scale(0.83,0.83)"><g fill="#ffffff" fill-rule="nonzero" stroke="none" stroke-width="1" stroke-linecap="butt" stroke-linejoin="miter" stroke-miterlimit="10" stroke-dasharray="" stroke-dashoffset="0" font-family="none" font-weight="none" font-size="none" text-anchor="none" style="mix-blend-mode: normal"><path d="M-26.21687,282.21687v-308.43373h308.43373v308.43373z" id="bgRectangle"></path></g><g fill="none" fill-rule="nonzero" stroke="none" stroke-width="1" stroke-linecap="butt" stroke-linejoin="miter" stroke-miterlimit="10" stroke-dasharray="" stroke-dashoffset="0" font-family="none" font-weight="none" font-size="none" text-anchor="none" style="mix-blend-mode: normal"><g transform="scale(5.33333,5.33333)"><path d="M33,8c0,-2.209 -1.791,-4 -4,-4c-2.209,0 -4,1.791 -4,4c0,1.254 0,9.741 0,11c0,2.209 1.791,4 4,4c2.209,0 4,-1.791 4,-4c0,-1.259 0,-9.746 0,-11z" fill="#33d375"></path><path d="M43,19c0,2.209 -1.791,4 -4,4c-1.195,0 -4,0 -4,0c0,0 0,-2.986 0,-4c0,-2.209 1.791,-4 4,-4c2.209,0 4,1.791 4,4z" fill="#33d375"></path><path d="M8,14c-2.209,0 -4,1.791 -4,4c0,2.209 1.791,4 4,4c1.254,0 9.741,0 11,0c2.209,0 4,-1.791 4,-4c0,-2.209 -1.791,-4 -4,-4c-1.259,0 -9.746,0 -11,0z" fill="#40c4ff"></path><path d="M19,4c2.209,0 4,1.791 4,4c0,1.195 0,4 0,4c0,0 -2.986,0 -4,0c-2.209,0 -4,-1.791 -4,-4c0,-2.209 1.791,-4 4,-4z" fill="#40c4ff"></path><path d="M14,39.006c0,2.206 1.791,3.994 4,3.994c2.209,0 4,-1.788 4,-3.994c0,-1.252 0,-9.727 0,-10.984c0,-2.206 -1.791,-3.994 -4,-3.994c-2.209,0 -4,1.788 -4,3.994c0,1.257 0,9.732 0,10.984z" fill="#e91e63"></path><path d="M4,28.022c0,-2.206 1.791,-3.994 4,-3.994c1.195,0 4,0 4,0c0,0 0,2.981 0,3.994c0,2.206 -1.791,3.994 -4,3.994c-2.209,0 -4,-1.788 -4,-3.994z" fill="#e91e63"></path><path d="M39,33c2.209,0 4,-1.791 4,-4c0,-2.209 -1.791,-4 -4,-4c-1.254,0 -9.741,0 -11,0c-2.209,0 -4,1.791 -4,4c0,2.209 1.791,4 4,4c1.258,0 9.746,0 11,0z" fill="#ffc107"></path><path d="M28,43c-2.209,0 -4,-1.791 -4,-4c0,-1.195 0,-4 0,-4c0,0 2.986,0 4,0c2.209,0 4,1.791 4,4c0,2.209 -1.791,4 -4,4z" fill="#ffc107"></path></g></g></g></svg>