<svg height="200px" width="200px" version="1.1" id="Layer_1" xmlns="http://www.w3.org/2000/svg" xmlns:xlink="http://www.w3.org/1999/xlink" viewBox="0 0 508.4 508.4" xml:space="preserve" fill="#000000"><g id="SVGRepo_bgCarrier" stroke-width="0"></g><g id="SVGRepo_tracerCarrier" stroke-linecap="round" stroke-linejoin="round"></g><g id="SVGRepo_iconCarrier"> <path style="fill:#AEB1B4;" d="M342.9,315.6c41.2,0,79.6-16,108.4-44.8c60-60,60-157.2,0-217.2C422.5,24.8,383.7,8.8,342.9,8.8 s-79.6,16-108.4,44.8c-58,58-59.6,151.2-5.6,211.6l11.2,11.2C268.5,301.6,304.5,315.6,342.9,315.6z M253.7,72.8 c24-24,55.6-36.8,89.2-36.8s65.2,13.2,89.2,36.8c49.2,49.2,49.2,129.2,0,178.4c-24,23.6-55.6,36.8-89.2,36.8s-65.2-13.2-89.2-36.8 C204.9,202,204.9,122,253.7,72.8z"></path> <path style="fill:#CDEEF9;" d="M342.9,284c32.8,0,63.2-12.8,86.4-35.6c47.6-47.6,47.6-125.2,0-172.8C406.1,52.4,375.7,40,342.9,40 s-63.2,12.8-86.4,35.6c-47.6,47.6-47.6,125.2,0,172.8C279.7,271.2,310.5,284,342.9,284z"></path> <path style="fill:#e19556;" d="M299.3,178h26.4c1.2,0,4.8,0.4,4.8,1.6V210c0,5.6,1.6,8,6.8,8h15.6c5.6,0,9.6-2.8,9.6-8v-30.4 c0-1.2-2.4-1.6-1.2-1.6h26.4c5.6,0,6.8-4.8,6.8-10v-12c0-5.6-1.6-10-6.8-10h-26.4c-1.2,0,1.2-0.8,1.2-2v-26.4 c0-5.6-7.6-7.6-13.2-7.6h-12c-5.6,0-6.8,2.4-6.8,7.6V144c0,1.2-3.6,2-4.8,2h-26.4c-5.6,0-8.8,4.4-8.8,10v12 C290.5,173.2,293.7,178,299.3,178z"></path> <path style="fill:#AEB1B4;" d="M215.3,254l-3.6,3.6c-8.8,8.8-8.8,23.6,0,32.4l3.2,3.2c8.8,8.8,23.6,8.8,32.4,0l3.6-3.6 c-6.8-4.8-13.2-10.4-19.2-16.4C225.7,267.2,220.1,260.8,215.3,254z"></path> <g> <path style="fill:#CCCCCC;" d="M240.1,276l-11.2-11.2c1.6,2,3.6,4,5.6,5.6C236.1,272.4,238.1,274,240.1,276z"></path> <path style="fill:#CCCCCC;" d="M232.9,272c-6-6-11.6-12.4-16.4-19.2l-1.6,1.6c4.8,6.8,10.4,13.2,16.4,19.2s12.4,11.2,19.2,16.4 l1.6-1.6C245.3,283.2,238.9,278,232.9,272z"></path> <path style="fill:#CCCCCC;" d="M252.1,288L252.1,288L252.1,288l-12-12.4c-2-1.6-4-3.6-5.6-5.2c-2-2-3.6-3.6-5.6-5.6l-12-12l0,0l0,0 c4.8,6.8,10.4,13.2,16.4,19.2C238.9,278,245.3,283.2,252.1,288z"></path> </g> <path style="fill:#AEB1B4;" d="M208.9,292.8c-1.6-1.6-2.8-2.8-3.6-4.4l-31.2,31.2l11.2,11.2l31.2-31.2c-1.6-1.2-3.2-2.4-4.4-3.6 L208.9,292.8z"></path> <g> <path style="fill:#CCCCCC;" d="M205.3,288.4c1.2,1.6,2.4,3.2,3.6,4.4l3.2,3.2c1.6,1.6,2.8,2.8,4.4,3.6l1.2-1.2l-1.2-1.2 c-1.2-0.8-2-1.6-3.2-2.4l-3.2-3.2c-0.8-0.8-1.6-2-2.4-3.2l-1.2-1.2l0,0L205.3,288.4z"></path> <path style="fill:#CCCCCC;" d="M210.5,291.6l3.2,3.2c0.8,0.8,2,1.6,3.2,2.4l-8.8-8.8C208.5,289.6,209.3,290.4,210.5,291.6z"></path> </g> <path style="fill:#e19556;" d="M12.9,459.2L31.7,478c0.8,0.8,0.8,2,0,2.8c-0.4,0.4-0.8,0.4-1.2,0.4s-1.2,0-1.2-0.4L10.5,462 c-8,9.2-7.6,22.8,1.2,31.6c4.4,4.4,10.4,6.8,16.4,6.8s12-2.4,16.4-6.8L189.3,340l-4.8-4.8l0,0l-14-14l0,0l-4.8-4.8L12.9,459.2z"></path> <polygon style="fill:#CCCCCC;" points="183.7,334.8 183.7,335.2 169.7,320.8 169.7,321.2 "></polygon> <path d="M346.5,323.2c-89.2,0-161.6-72.4-161.6-161.6S257.3,0,346.5,0s161.6,72.4,161.6,161.6S435.7,323.2,346.5,323.2z M346.5,12.4 c-82.4,0-149.6,67.2-149.6,149.6s67.2,149.6,149.6,149.6S496.1,244.4,496.1,162S428.9,12.4,346.5,12.4z"></path> <path d="M346.5,292c-71.6,0-130-58.4-130-130s58.4-130,130-130s130,58.4,130,130S418.5,292,346.5,292z M346.5,44 c-65.2,0-118,52.8-118,118s52.8,118,118,118s118-52.8,118-118S411.7,44,346.5,44z"></path> <path d="M349.3,226h-12c-10.4,0-18.8-10.8-18.8-20v-20h-19.6c-9.6,0-20.4-8-20.4-18v-12c0-10,11.2-18,20.4-18h19.6v-20.4 c0-9.2,8-15.6,18.8-15.6h12c10.4,0,21.2,6,21.2,15.6V138h20.8c9.2,0,15.2,7.2,15.2,18v12c0,10.8-6,18-15.2,18h-20.8v20 C370.5,216.4,358.5,226,349.3,226z M298.9,150c-3.6,0-8.4,3.2-8.4,6v12c0,2.4,4.4,6,8.4,6h25.6c3.2,0,6,2.8,6,6v26c0,3.6,4,8,6.8,8 h12c3.6,0,9.2-5.2,9.2-8v-26c0-3.2,2.8-6,6-6h26.8c2.8,0,3.2-3.2,3.2-6v-12c0-6-2.4-6-3.2-6h-26.8c-3.2,0-6-2.8-6-6v-26.4 c0-1.6-4.4-3.6-9.2-3.6h-12c0,0-6.8,0-6.8,3.6V144c0,3.2-2.8,6-6,6H298.9z"></path> <path d="M234.5,307.6c-8,0-15.6-3.2-21.6-9.2l-3.2-3.2c-12-12-12-31.6,0-43.6l5.2-5.2c2.4-2.4,6-2.4,8.4,0s2.4,6,0,8.4l-5.2,5.2 c-7.2,7.2-7.2,19.2,0,26.8l3.2,3.2c7.2,7.2,19.2,7.2,26.8,0l5.2-5.2c2.4-2.4,6-2.4,8.4,0s2.4,6,0,8.4l-5.2,5.2 C250.5,304.8,242.5,307.6,234.5,307.6z"></path> <path d="M188.9,339.6L188.9,339.6c-1.6,0-3.2-0.8-4.4-1.6l-14-14c-2.4-2.4-2.4-6,0-8.4l34-34c2.4-2.4,6-2.4,8.4,0s2.4,6,0,8.4 l-29.6,29.6l5.6,5.6l29.6-29.6c2.4-2.4,6-2.4,8.4,0s2.4,6,0,8.4l-34,34C192.1,338.8,190.5,339.6,188.9,339.6z"></path> <path d="M31.3,508.4c-8,0-16-3.2-22-9.2c-12-12-12-32,0-44l155.2-146c2.4-2.4,6-2,8.4,0l26.4,26.4c2.4,2.4,2.4,6,0,8.4l-146,155.2 C47.3,505.2,39.3,508.4,31.3,508.4z M168.5,321.6l-150.8,142c-7.2,7.2-7.2,19.6,0,27.2c7.6,7.6,19.6,7.6,27.2,0l142-150.8 L168.5,321.6z"></path> <path d="M34.1,485.2c-1.6,0-3.2-0.4-4.4-1.6l-18.8-18.8c-2.4-2.4-2.4-6,0-8.4s6-2.4,8.4,0l18.8,18.8c2.4,2.4,2.4,6,0,8.4 C36.9,484.8,35.3,485.2,34.1,485.2z"></path> <path d="M432.5,118.8c-2,0-4-1.2-5.2-3.2c-17.2-30.4-49.6-48.4-84.4-46.8c-3.6,0-6-2.4-6.4-5.6c0-3.2,2.4-6,5.6-6.4 c39.2-1.6,76,18.8,95.6,52.8c1.6,2.8,0.8,6.4-2.4,8C434.5,118.4,433.7,118.8,432.5,118.8z"></path> </g></svg>