<svg height="200px" width="200px" version="1.1" id="Layer_1" xmlns="http://www.w3.org/2000/svg" xmlns:xlink="http://www.w3.org/1999/xlink" viewBox="0 0 504.4 504.4" xml:space="preserve" fill="#000000" stroke="#000000"><g id="SVGRepo_bgCarrier" stroke-width="0"></g><g id="SVGRepo_tracerCarrier" stroke-linecap="round" stroke-linejoin="round"></g><g id="SVGRepo_iconCarrier"> <path style="fill:#AEB1B4;" d="M344.6,314c41.2,0,79.6-16,108.4-44.8c60-60,60-157.2,0-217.2C424.2,23.2,385.4,7.2,344.6,7.2 c-41.2,0-79.6,16-108.4,44.8c-28.8,28.8-44.8,67.6-44.8,108.4c0,38.4,14,74.8,39.6,102.8l11.2,11.2C270.2,300,306.2,314,344.6,314z M255.8,71.2c23.6-24,55.6-36.8,89.2-36.8s65.2,13.2,89.2,36.8c49.2,49.2,49.2,129.2,0,178.4c-23.6,23.6-55.6,36.8-89.2,36.8 c-33.6,0-65.2-13.2-89.2-36.8C206.6,200.4,206.6,120.4,255.8,71.2z"></path> <path style="fill:#CDEEF9;" d="M341,282c32.8,0,63.2-12.8,86.4-35.6c47.6-47.6,47.6-125.2,0-172.8C404.2,50.4,373.8,38,341,38 s-63.2,12.8-86.4,35.6c-47.6,47.6-47.6,125.2,0,172.8C277.8,269.2,308.6,282,341,282z M399.4,166.8c0,7.6-6,13.6-13.6,13.6h-88.4 c-7.6,0-13.6-6-13.6-13.6v-12.4c0-7.6,6-13.6,13.6-13.6h88.4c7.6,0,13.6,6,13.6,13.6V166.8L399.4,166.8z"></path> <path style="fill:#DF5C4E;" d="M395.4,154.4c0-5.6-4.4-10-10-10H297c-5.6,0-10,4.4-10,10v12.4c0,5.6,4.4,10,10,10h88.4 c5.6,0,10-4.4,10-10V154.4z"></path> <g> <path style="fill:#eda164;" d="M399.4,154c0-7.6-6-13.6-13.6-13.6h-88.4c-7.6,0-13.6,6-13.6,13.6v12.4c0,7.6,6,13.6,13.6,13.6h88.4 c7.6,0,13.6-6,13.6-13.6V154L399.4,154z M395.4,164.4c0,6.4-5.2,12-12,12h-88c-6.4,0-12-5.2-12-12v-12c0-6.4,5.2-12,12-12h88.4 c6.4,0,12,5.2,12,12C395.4,152.4,395.4,164.4,395.4,164.4z"></path> <path style="fill:#eda164;" d="M395.4,152.4c0-6.4-5.2-12-12-12h-88c-6.4,0-12,5.2-12,12v12.4c0,6.4,5.2,12,12,12h88.4 c6.4,0,12-5.2,12-12C395.4,164.4,395.4,152.4,395.4,152.4z M395.4,166.4c0,5.6-4.4,10-10,10H297c-5.6,0-10-4.4-10-10V154 c0-5.6,4.4-10,10-10h88.4c5.6,0,10,4.4,10,10V166.4z"></path> </g> <path style="fill:#AEB1B4;" d="M214.6,252l-3.6,3.6c-8.8,8.8-8.8,23.6,0,32.4l3.2,3.2c8.8,8.8,23.6,8.8,32.4,0l3.6-3.6 c-6.8-4.8-13.2-10.4-19.2-16.4C225,265.2,219.4,258.8,214.6,252z"></path> <g> <path style="fill:#eda164;" d="M238.2,274L227,262.8c1.6,2,3.6,4,5.6,5.6C234.2,270.4,236.2,272,238.2,274z"></path> <path style="fill:#eda164;" d="M231,270c-6-6-11.6-12.4-16.4-19.2l-1.6,1.6c4.8,6.8,10.4,13.2,16.4,19.2s12.4,11.2,19.2,16.4 l1.6-1.6C243.4,281.2,237,276,231,270z"></path> <path style="fill:#eda164;" d="M250.2,286L250.2,286L250.2,286l-12-12.4c-2-1.6-4-3.6-5.6-5.2c-2-2-3.6-3.6-5.2-5.6l-12-12l0,0l0,0 c4.8,6.8,10.4,13.2,16.4,19.2C237,276,243.4,281.2,250.2,286z"></path> <path style="fill:#eda164;" d="M213,293.2l-3.2-3.2c-1.6-1.6-2.8-2.8-3.6-4.4L175,316.8l11.2,11.2l31.2-31.2 C215.8,296,214.6,294.8,213,293.2z"></path> <path style="fill:#eda164;" d="M203.4,286.4c1.2,1.6,2.4,3.2,3.6,4.4l3.2,3.2c1.6,1.6,2.8,2.8,4.4,3.6l1.2-1.2l-1.2-1.2 c-1.2-0.8-2-1.6-3.2-2.4l-3.2-3.2c-0.8-0.8-1.6-2-2.4-3.2l-1.2-1.2l0,0L203.4,286.4z"></path> <path style="fill:#eda164;" d="M208.6,289.6l3.2,3.2c0.8,0.8,2,1.6,3.2,2.4l-8.8-8.8C206.6,287.6,207.4,288.4,208.6,289.6z"></path> <path style="fill:#eda164;" d="M15,457.2L33.8,476c0.8,0.8,0.8,2,0,2.8c-0.4,0.4-0.8,0.4-1.2,0.4s-1.2,0-1.2-0.4L12.6,460 c-8,9.2-7.6,22.8,1.2,31.6c4.4,4.4,10.4,6.8,16.4,6.8c6.4,0,12-2.4,16.4-6.8L191,338l-4.8-4.8l0,0l-14-14l0,0l-4.8-4.8L15,457.2z"></path> <polygon style="fill:#eda164;" points="181.8,332.8 181.8,333.2 167.8,318.8 167.8,318.8 "></polygon> </g> <path d="M385.4,182.4H297c-8.8,0-16-7.2-16-16V154c0-8.8,7.2-16,16-16h88.4c8.8,0,16,7.2,16,16v12.4 C401.4,175.2,394.2,182.4,385.4,182.4z M297.4,146.4c-4.4,0-8,3.6-8,8v12.4c0,4.4,3.6,8,8,8h88.4c4.4,0,8-3.6,8-8v-12.4 c0-4.4-3.6-8-8-8H297.4z"></path> <path d="M344.6,319.2c-88,0-159.6-71.6-159.6-159.6S256.6,0,344.6,0s159.6,71.6,159.6,159.6S432.6,319.2,344.6,319.2z M344.6,8.4 C261,8.4,193,76.4,193,160s68,151.6,151.6,151.6s151.6-68,151.6-151.6S428.2,8.4,344.6,8.4z"></path> <path d="M344.6,288c-32.8,0-65.6-12.4-90.4-37.6c-50-50-50-131.2,0-181.2s131.2-50,181.2,0s50,131.2,0,181.2 C410.2,275.2,377.4,288,344.6,288z M344.6,40c-30.8,0-61.6,11.6-84.8,35.2C213,122,213,198,259.8,244.8 c46.8,46.8,122.8,46.8,169.6,0s46.8-122.8,0-169.6l0,0C406.2,51.6,375.4,40,344.6,40z"></path> <path d="M232.6,303.6c-7.2,0-14.8-2.8-20.4-8.4L209,292c-11.2-11.2-11.2-29.6,0-40.8l5.2-5.2c1.6-1.6,4-1.6,5.6,0s1.6,4,0,5.6 l-5.2,5.2c-8,8-8,21.2,0,29.6l3.2,3.2c8,8,21.2,8,29.6,0l5.2-5.2c1.6-1.6,4-1.6,5.6,0s1.6,4,0,5.6l-5.2,5.2 C247.4,300.8,240.2,303.6,232.6,303.6z"></path> <path d="M187,335.6c-1.2,0-2-0.4-2.8-1.2l-14-14c-0.8-0.8-1.2-1.6-1.2-2.8s0.4-2,1.2-2.8l34-34c1.6-1.6,4-1.6,5.6,0s1.6,4,0,5.6 l-31.2,31.2l8.4,8.4l31.2-31.2c1.6-1.6,4-1.6,5.6,0s1.6,4,0,5.6l-34,34C189,335.2,188.2,335.6,187,335.6z"></path> <path d="M29.4,504.4c-7.6,0-14.8-2.8-20.8-8.4c-11.2-11.2-11.2-30,0-41.2l155.2-146c1.6-1.6,4-1.6,5.6,0l26.4,26.4 c1.6,1.6,1.6,4,0,5.6L49.8,496C44.6,501.6,37,504.4,29.4,504.4z M166.6,316.8L14.2,460c-8,8-8,21.6,0,30c8.4,8.4,21.6,8.4,30,0 l143.2-152.4L166.6,316.8z"></path> <path d="M32.2,481.2c-1.2,0-2-0.4-2.8-1.2l-18.8-18.8c-1.6-1.6-1.6-4,0-5.6s4-1.6,5.6,0L35,474.4c1.6,1.6,1.6,4,0,5.6 C34.2,480.8,33,481.2,32.2,481.2z"></path> <path d="M430.6,114.8c-1.2,0-2.8-0.8-3.6-2c-17.6-30.8-50.8-49.2-86.4-47.6c-2.4,0-4-1.6-4-4s1.6-4,4-4c38.8-1.6,74.4,18.4,93.6,52 c1.2,2,0.4,4.4-1.6,5.6C432.2,114.8,431.4,114.8,430.6,114.8z"></path> </g></svg>